<svg xmlns="http://www.w3.org/2000/svg" viewBox="0 0 16 16">
  <path d="M6.44,7.48A2.1,2.1,0,0,0,7.79,5.42C7.79,3.46,6.33,3,4.64,3H0v9.85H4.77c1.79,0,3.47-.86,3.47-2.86a2.36,2.36,0,0,0-1.8-2.49ZM2.16,4.67h2c.79,0,1.49.21,1.49,1.12S5.13,7,4.36,7H2.16Zm2.32,6.49H2.16V8.45H4.52c1,0,1.56.39,1.56,1.4s-.72,1.31-1.6,1.31Zm10-6.69h-4v-1h4v1ZM16,9.37c0-2.11-1.23-3.87-3.47-3.87A3.58,3.58,0,0,0,8.88,9.27,3.48,3.48,0,0,0,12.53,13a3.19,3.19,0,0,0,3.34-2.4H14.14a1.62,1.62,0,0,1-1.55.93,1.61,1.61,0,0,1-1.75-1.82H16C16,9.62,16,9.49,16,9.37ZM10.84,8.5A1.54,1.54,0,0,1,12.47,7,1.46,1.46,0,0,1,14,8.5Z"/>
</svg>
